<svg version="1.2" baseProfile="tiny-ps" xmlns="http://www.w3.org/2000/svg" viewBox="0 0 1531 1059" width="1531" height="1059">
	<title>Rosneft_201x_logo-svg</title>
	<style>
		tspan { white-space:pre }
		.shp0 { fill: #fdcf00 } 
		.shp1 { fill: #000000 } 
	</style>
	<path id="path3125" class="shp0" d="M810.23 757.7L876.72 757.7L876.72 431.77L810.23 431.77L810.23 757.7ZM731.38 757.7L797.91 757.7L797.91 364.52L731.38 364.52L731.38 757.7ZM652.56 757.7L719.06 757.7L719.06 431.77L652.56 431.77L652.56 757.7Z" />
	<path id="path3147" fill-rule="evenodd" class="shp1" d="M810.23 72.84L876.72 72.84L876.72 421.55L810.23 421.55L810.23 72.84ZM889.03 145.52L955.58 145.52L955.58 453.12L889.03 517.24L889.03 145.52ZM967.89 219.36L1034.38 219.36L1034.38 386.51L967.89 444.58L967.89 219.36ZM731.38 0.18L797.91 0.18L797.91 350.13L731.38 350.13L731.38 0.18ZM652.56 72.84L719.06 72.84L719.06 421.55L652.56 421.55L652.56 72.84ZM640.2 517.24L573.68 453.12L573.68 145.52L640.2 145.52L640.2 517.24ZM561.32 444.58L494.83 386.51L494.83 219.36L561.32 219.36L561.32 444.58Z" />
	<path id="path3199" fill-rule="evenodd" class="shp1" d="M626.95 967.52C642.06 982.79 639.46 1013.11 639.4 1014.35C638.74 1028.38 634.45 1039 626.47 1046.32C617.74 1054.29 602.09 1058.23 579.56 1058.23L452.92 1058.23L452.92 1020.12L579.33 1020.12C586.67 1020.12 592.57 1014.29 592.57 1007.12C592.57 999.88 586.67 994.11 579.33 994.11L500.22 994.05L500.12 994.05C480.26 993.49 443.67 993.89 446.19 934.94C446.81 920.94 451.17 910.27 459.14 902.97C467.88 895.01 483.5 891.06 506.06 891.06L632.3 891.06L632.3 929.2L506.29 929.2C498.99 929.2 493.05 934.99 493.05 942.19C493.05 949.38 498.99 955.16 506.29 955.16L585.42 955.19L585.5 955.19C605.38 955.78 619.35 959.77 626.96 967.51M197.27 1058.57L139.52 1058.57L82.63 1000.87L50.81 1000.87L50.81 1058.46L0.18 1058.46L0.18 891.56L134.37 891.56C157.1 891.56 172.57 895.67 180.93 903.92C189.26 912.18 193.47 924.11 193.47 939.63L193.47 952.84C193.47 968.37 189.26 980.29 180.93 988.55C173.32 996.09 159.76 1000.08 140.19 1000.77L197.27 1058.57ZM50.81 962.97L125.88 962.97C135.27 962.97 142.87 955.48 142.87 946.24C142.87 937.01 135.27 929.56 125.88 929.56L50.81 929.56L50.81 962.97ZM1405.23 928.95L1334.58 928.95L1334.58 890.74L1530.12 890.74L1530.12 928.95L1456.48 928.95L1456.48 1058.64L1405.23 1058.64L1405.23 928.95ZM1166.67 993.17L1166.67 1058.64L1115.37 1058.64L1115.1 939.11C1115.1 922.87 1119.55 910.76 1128.35 902.74C1137.2 894.75 1152.99 890.74 1175.79 890.74L1310.95 890.74L1310.95 928.97L1198.46 928.97C1185.88 928.97 1177.48 931.27 1173.23 935.93C1169.06 940.57 1166.83 946.9 1166.67 954.98L1310.95 954.98L1310.95 993.17L1166.67 993.17ZM405.93 1046.19C397.49 1054.47 381.82 1058.64 358.83 1058.64L283.43 1058.64C260.64 1058.64 244.84 1054.65 236.02 1046.62C227.23 1038.62 222.78 1026.51 222.78 1010.3L222.78 939.11C222.78 922.87 227.23 910.76 236.02 902.75C244.84 894.77 260.64 890.74 283.43 890.74L358.83 890.74C381.82 890.74 397.49 894.93 405.93 903.17C414.41 911.5 418.6 923.43 418.6 939.11L418.6 1010.3C418.6 1025.94 414.41 1037.9 405.93 1046.19ZM367.07 955.57C367.07 946.35 365.11 939.58 361.19 935.34C357.23 931.07 348.52 928.95 334.99 928.95L306.12 928.95C293.56 928.95 285.14 931.27 280.95 935.93C276.74 940.55 274.6 947.14 274.6 955.57L274.6 993.77C274.6 1002.28 276.74 1008.83 280.95 1013.45C285.14 1018.11 293.56 1020.43 306.12 1020.43L334.99 1020.43C348.52 1020.43 357.16 1018.31 360.88 1014.04C364.64 1009.8 366.68 1003.18 367.07 994.06L367.07 955.57ZM943.9 993.44C944.14 1002.22 946.29 1008.95 950.49 1013.59C954.66 1018.2 962.88 1020.52 975.4 1020.52L1086.57 1020.52L1086.57 1058.46L952.97 1058.46C930.48 1058.46 914.77 1054.52 906.08 1046.52C897.34 1038.55 893 1026.53 893 1010.41L893 939.63C893 923.48 897.34 911.5 906.08 903.49C914.77 895.56 930.48 891.56 952.97 891.56L1086.57 891.56L1086.57 929.58L975.4 929.58C962.88 929.58 954.66 931.9 950.49 936.43C946.29 941 944.13 947.33 943.9 955.45L1086.57 955.45L1086.57 993.44L943.9 993.44ZM863.64 1059.07L812.06 1059.07L812.06 956.29C812.06 946.98 810.12 940.28 806.16 936.05C802.31 931.76 793.51 929.63 779.97 929.63L751.14 929.63C738.6 929.63 730.19 931.97 725.96 936.61C721.71 941.2 719.61 947.8 719.61 956.29L719.61 1059.07L667.77 1059.07L667.77 939.78C667.77 923.57 672.22 911.44 681.02 903.46C689.89 895.45 705.65 891.46 728.46 891.46L803.84 891.46C826.83 891.46 842.54 895.58 850.98 903.91C859.41 912.18 863.64 924.13 863.64 939.78L863.64 1059.07Z" />
</svg>